<svg data-v-423bf9ae="" xmlns="http://www.w3.org/2000/svg" viewBox="0 0 656 90" class="iconLeft"><!----><!----><!----><g data-v-423bf9ae="" id="edac6090-e8e8-47ae-bcae-28595ed588e3" fill="black" transform="matrix(4.332129844579322,0,0,4.332129844579322,193.3509596738832,2.783395319580073)"><path d="M1.03 4.27L1.03 3.09L4.38 3.09L4.38 4.27L3.51 4.27L3.51 12.28L3.51 12.28Q3.51 12.43 3.44 12.63L3.44 12.63L3.44 12.63Q3.37 12.83 3.26 13.06L3.26 13.06L3.26 13.06Q3.14 13.28 2.99 13.52L2.99 13.52L2.99 13.52Q2.84 13.75 2.69 13.98L2.69 13.98L2.69 13.98Q2.33 14.51 1.87 15.08L1.87 15.08L0.70 14.98L0.70 14.98Q1.10 14.36 1.42 13.80L1.42 13.80L1.42 13.80Q1.56 13.56 1.69 13.31L1.69 13.31L1.69 13.31Q1.82 13.06 1.92 12.83L1.92 12.83L1.92 12.83Q2.02 12.60 2.09 12.40L2.09 12.40L2.09 12.40Q2.15 12.20 2.15 12.05L2.15 12.05L2.15 4.27L1.03 4.27ZM9.51 13.45L9.51 12.80L9.51 12.80Q9.11 13.17 8.62 13.41L8.62 13.41L8.62 13.41Q8.13 13.65 7.51 13.65L7.51 13.65L7.51 13.65Q6.99 13.65 6.55 13.49L6.55 13.49L6.55 13.49Q6.12 13.32 5.80 13.04L5.80 13.04L5.80 13.04Q5.49 12.76 5.31 12.38L5.31 12.38L5.31 12.38Q5.14 12.00 5.14 11.58L5.14 11.58L5.14 11.58Q5.14 11.13 5.27 10.78L5.27 10.78L5.27 10.78Q5.41 10.43 5.63 10.18L5.63 10.18L5.63 10.18Q5.85 9.92 6.15 9.74L6.15 9.74L6.15 9.74Q6.45 9.57 6.77 9.46L6.77 9.46L6.77 9.46Q7.10 9.36 7.43 9.31L7.43 9.31L7.43 9.31Q7.77 9.27 8.08 9.27L8.08 9.27L8.08 9.27Q8.57 9.27 8.91 9.30L8.91 9.30L8.91 9.30Q9.24 9.33 9.52 9.39L9.52 9.39L9.52 8.80L9.52 8.80Q9.52 8.43 9.41 8.15L9.41 8.15L9.41 8.15Q9.30 7.88 9.11 7.69L9.11 7.69L9.11 7.69Q8.91 7.51 8.63 7.42L8.63 7.42L8.63 7.42Q8.35 7.33 8.01 7.33L8.01 7.33L8.01 7.33Q7.69 7.33 7.40 7.38L7.40 7.38L7.40 7.38Q7.10 7.42 6.85 7.50L6.85 7.50L6.85 7.50Q6.59 7.57 6.37 7.66L6.37 7.66L6.37 7.66Q6.16 7.75 6.01 7.85L6.01 7.85L5.59 6.97L5.59 6.97Q5.84 6.81 6.15 6.67L6.15 6.67L6.15 6.67Q6.45 6.53 6.78 6.43L6.78 6.43L6.78 6.43Q7.11 6.33 7.45 6.27L7.45 6.27L7.45 6.27Q7.80 6.21 8.13 6.21L8.13 6.21L8.13 6.21Q8.75 6.21 9.24 6.36L9.24 6.36L9.24 6.36Q9.73 6.51 10.08 6.82L10.08 6.82L10.08 6.82Q10.42 7.12 10.60 7.60L10.60 7.60L10.60 7.60Q10.79 8.07 10.79 8.74L10.79 8.74L10.78 12.28L11.57 12.28L11.57 13.45L9.51 13.45ZM7.79 12.58L7.79 12.58L7.79 12.58Q8.04 12.58 8.29 12.52L8.29 12.52L8.29 12.52Q8.54 12.46 8.77 12.36L8.77 12.36L8.77 12.36Q9.00 12.25 9.19 12.11L9.19 12.11L9.19 12.11Q9.38 11.97 9.51 11.82L9.51 11.82L9.52 10.22L8.04 10.22L8.04 10.22Q7.67 10.22 7.37 10.30L7.37 10.30L7.37 10.30Q7.06 10.38 6.84 10.54L6.84 10.54L6.84 10.54Q6.62 10.70 6.49 10.93L6.49 10.93L6.49 10.93Q6.37 11.16 6.37 11.46L6.37 11.46L6.37 11.46Q6.37 11.74 6.47 11.95L6.47 11.95L6.47 11.95Q6.58 12.16 6.76 12.30L6.76 12.30L6.76 12.30Q6.95 12.44 7.21 12.51L7.21 12.51L7.21 12.51Q7.47 12.58 7.79 12.58ZM12.53 7.55L12.53 6.37L15.22 6.37L15.22 7.55L14.38 7.55L16.04 12.07L17.77 7.55L16.94 7.55L16.94 6.37L19.63 6.37L19.63 7.55L18.89 7.55L15.74 15.50L16.71 15.50L16.71 16.67L13.86 16.67L13.86 15.50L14.72 15.50L15.47 13.55L13.10 7.55L12.53 7.55ZM25.20 13.45L25.20 12.80L25.20 12.80Q24.80 13.17 24.31 13.41L24.31 13.41L24.31 13.41Q23.82 13.65 23.20 13.65L23.20 13.65L23.20 13.65Q22.68 13.65 22.25 13.49L22.25 13.49L22.25 13.49Q21.81 13.32 21.50 13.04L21.50 13.04L21.50 13.04Q21.18 12.76 21.01 12.38L21.01 12.38L21.01 12.38Q20.84 12.00 20.84 11.58L20.84 11.58L20.84 11.58Q20.84 11.13 20.97 10.78L20.97 10.78L20.97 10.78Q21.10 10.43 21.32 10.18L21.32 10.18L21.32 10.18Q21.55 9.92 21.84 9.74L21.84 9.74L21.84 9.74Q22.14 9.57 22.47 9.46L22.47 9.46L22.47 9.46Q22.79 9.36 23.13 9.31L23.13 9.31L23.13 9.31Q23.47 9.27 23.78 9.27L23.78 9.27L23.78 9.27Q24.27 9.27 24.60 9.30L24.60 9.30L24.60 9.30Q24.94 9.33 25.21 9.39L25.21 9.39L25.22 8.80L25.22 8.80Q25.22 8.43 25.11 8.15L25.11 8.15L25.11 8.15Q25.00 7.88 24.80 7.69L24.80 7.69L24.80 7.69Q24.60 7.51 24.33 7.42L24.33 7.42L24.33 7.42Q24.05 7.33 23.71 7.33L23.71 7.33L23.71 7.33Q23.39 7.33 23.09 7.38L23.09 7.38L23.09 7.38Q22.80 7.42 22.54 7.50L22.54 7.50L22.54 7.50Q22.29 7.57 22.07 7.66L22.07 7.66L22.07 7.66Q21.85 7.75 21.70 7.85L21.70 7.85L21.29 6.97L21.29 6.97Q21.54 6.81 21.84 6.67L21.84 6.67L21.84 6.67Q22.14 6.53 22.47 6.43L22.47 6.43L22.47 6.43Q22.80 6.33 23.15 6.27L23.15 6.27L23.15 6.27Q23.50 6.21 23.83 6.21L23.83 6.21L23.83 6.21Q24.45 6.21 24.94 6.36L24.94 6.36L24.94 6.36Q25.43 6.51 25.77 6.82L25.77 6.82L25.77 6.82Q26.11 7.12 26.30 7.60L26.30 7.60L26.30 7.60Q26.48 8.07 26.48 8.74L26.48 8.74L26.48 12.28L27.26 12.28L27.26 13.45L25.20 13.45ZM23.48 12.58L23.48 12.58L23.48 12.58Q23.73 12.58 23.99 12.52L23.99 12.52L23.99 12.52Q24.24 12.46 24.47 12.36L24.47 12.36L24.47 12.36Q24.69 12.25 24.88 12.11L24.88 12.11L24.88 12.11Q25.07 11.97 25.20 11.82L25.20 11.82L25.21 10.22L23.73 10.22L23.73 10.22Q23.37 10.22 23.06 10.30L23.06 10.30L23.06 10.30Q22.76 10.38 22.53 10.54L22.53 10.54L22.53 10.54Q22.31 10.70 22.19 10.93L22.19 10.93L22.19 10.93Q22.07 11.16 22.07 11.46L22.07 11.46L22.07 11.46Q22.07 11.74 22.17 11.95L22.17 11.95L22.17 11.95Q22.27 12.16 22.46 12.30L22.46 12.30L22.46 12.30Q22.65 12.44 22.91 12.51L22.91 12.51L22.91 12.51Q23.17 12.58 23.48 12.58ZM33.36 13.45L33.36 12.28L34.36 12.28L34.36 9.04L34.36 9.04Q34.36 8.23 33.94 7.81L33.94 7.81L33.94 7.81Q33.53 7.39 32.76 7.39L32.76 7.39L32.76 7.39Q32.31 7.39 31.86 7.60L31.86 7.60L31.86 7.60Q31.41 7.81 31.01 8.13L31.01 8.13L31.01 12.28L32.01 12.28L32.01 13.45L28.70 13.45L28.70 12.28L29.68 12.28L29.68 7.55L28.70 7.55L28.70 6.37L30.95 6.37L30.95 7.21L30.97 7.21L30.97 7.21Q31.19 7.01 31.45 6.83L31.45 6.83L31.45 6.83Q31.71 6.65 31.99 6.52L31.99 6.52L31.99 6.52Q32.27 6.39 32.57 6.32L32.57 6.32L32.57 6.32Q32.87 6.24 33.21 6.24L33.21 6.24L33.21 6.24Q33.78 6.24 34.23 6.40L34.23 6.40L34.23 6.40Q34.69 6.56 35.01 6.88L35.01 6.88L35.01 6.88Q35.33 7.20 35.51 7.70L35.51 7.70L35.51 7.70Q35.68 8.20 35.68 8.89L35.68 8.89L35.68 12.28L36.67 12.28L36.67 13.45L33.36 13.45ZM37.98 3.99L37.98 2.82L40.48 2.82L40.48 3.99L40.46 3.99L40.46 9.28L41.69 9.28L43.37 7.55L42.95 7.55L42.95 6.37L45.64 6.37L45.64 7.55L44.74 7.55L42.59 9.77L44.94 12.28L45.79 12.28L45.79 13.45L44.30 13.45L41.40 10.29L40.46 10.29L40.46 12.28L41.05 12.28L41.05 13.45L38.02 13.45L38.02 12.28L39.18 12.28L39.18 3.99L37.98 3.99ZM46.14 13.45L46.14 13.45L46.14 13.45Q46.14 13.45 46.14 13.45ZM50.18 13.45L50.18 12.28L51.17 12.28L51.17 4.40L50.18 4.40L50.18 3.09L53.46 3.09L56.75 12.04L60.08 3.09L63.19 3.09L63.19 4.40L62.21 4.40L62.21 12.28L63.19 12.28L63.19 13.45L59.83 13.45L59.83 12.28L60.94 12.28L60.94 4.32L57.31 13.45L56.15 13.45L52.48 4.30L52.48 12.28L53.55 12.28L53.55 13.45L50.18 13.45ZM69.02 13.45L69.02 12.80L69.02 12.80Q68.61 13.17 68.12 13.41L68.12 13.41L68.12 13.41Q67.63 13.65 67.01 13.65L67.01 13.65L67.01 13.65Q66.49 13.65 66.06 13.49L66.06 13.49L66.06 13.49Q65.63 13.32 65.31 13.04L65.31 13.04L65.31 13.04Q65.00 12.76 64.82 12.38L64.82 12.38L64.82 12.38Q64.65 12.00 64.65 11.58L64.65 11.58L64.65 11.58Q64.65 11.13 64.78 10.78L64.78 10.78L64.78 10.78Q64.91 10.43 65.14 10.18L65.14 10.18L65.14 10.18Q65.36 9.92 65.66 9.74L65.66 9.74L65.66 9.74Q65.95 9.57 66.28 9.46L66.28 9.46L66.28 9.46Q66.60 9.36 66.94 9.31L66.94 9.31L66.94 9.31Q67.28 9.27 67.59 9.27L67.59 9.27L67.59 9.27Q68.08 9.27 68.41 9.30L68.41 9.30L68.41 9.30Q68.75 9.33 69.02 9.39L69.02 9.39L69.03 8.80L69.03 8.80Q69.03 8.43 68.92 8.15L68.92 8.15L68.92 8.15Q68.81 7.88 68.61 7.69L68.61 7.69L68.61 7.69Q68.41 7.51 68.14 7.42L68.14 7.42L68.14 7.42Q67.86 7.33 67.52 7.33L67.52 7.33L67.52 7.33Q67.20 7.33 66.90 7.38L66.90 7.38L66.90 7.38Q66.61 7.42 66.35 7.50L66.35 7.50L66.35 7.50Q66.10 7.57 65.88 7.66L65.88 7.66L65.88 7.66Q65.67 7.75 65.52 7.85L65.52 7.85L65.10 6.97L65.10 6.97Q65.35 6.81 65.65 6.67L65.65 6.67L65.65 6.67Q65.95 6.53 66.28 6.43L66.28 6.43L66.28 6.43Q66.62 6.33 66.96 6.27L66.96 6.27L66.96 6.27Q67.31 6.21 67.64 6.21L67.64 6.21L67.64 6.21Q68.26 6.21 68.75 6.36L68.75 6.36L68.75 6.36Q69.24 6.51 69.58 6.82L69.58 6.82L69.58 6.82Q69.92 7.12 70.11 7.60L70.11 7.60L70.11 7.60Q70.29 8.07 70.29 8.74L70.29 8.74L70.29 12.28L71.07 12.28L71.07 13.45L69.02 13.45ZM67.29 12.58L67.29 12.58L67.29 12.58Q67.55 12.58 67.80 12.52L67.80 12.52L67.80 12.52Q68.05 12.46 68.28 12.36L68.28 12.36L68.28 12.36Q68.50 12.25 68.69 12.11L68.69 12.11L68.69 12.11Q68.89 11.97 69.02 11.82L69.02 11.82L69.02 10.22L67.55 10.22L67.55 10.22Q67.18 10.22 66.87 10.30L66.87 10.30L66.87 10.30Q66.57 10.38 66.35 10.54L66.35 10.54L66.35 10.54Q66.12 10.70 66.00 10.93L66.00 10.93L66.00 10.93Q65.88 11.16 65.88 11.46L65.88 11.46L65.88 11.46Q65.88 11.74 65.98 11.95L65.98 11.95L65.98 11.95Q66.08 12.16 66.27 12.30L66.27 12.30L66.27 12.30Q66.46 12.44 66.72 12.51L66.72 12.51L66.72 12.51Q66.98 12.58 67.29 12.58ZM72.04 7.55L72.04 6.37L74.72 6.37L74.72 7.55L73.88 7.55L75.54 12.07L77.28 7.55L76.45 7.55L76.45 6.37L79.13 6.37L79.13 7.55L78.40 7.55L75.25 15.50L76.22 15.50L76.22 16.67L73.36 16.67L73.36 15.50L74.22 15.50L74.98 13.55L72.61 7.55L72.04 7.55ZM84.81 7.55L84.81 6.37L87.10 6.37L87.10 12.28L87.88 12.28L87.88 13.45L85.82 13.45L85.82 12.80L85.82 12.80Q85.34 13.17 84.78 13.37L84.78 13.37L84.78 13.37Q84.21 13.58 83.57 13.58L83.57 13.58L83.57 13.58Q83.04 13.58 82.60 13.42L82.60 13.42L82.60 13.42Q82.17 13.27 81.86 12.94L81.86 12.94L81.86 12.94Q81.56 12.62 81.40 12.12L81.40 12.12L81.40 12.12Q81.23 11.62 81.23 10.93L81.23 10.93L81.23 7.55L80.27 7.55L80.27 6.37L82.56 6.37L82.56 10.78L82.56 10.78Q82.56 11.59 82.93 12.01L82.93 12.01L82.93 12.01Q83.31 12.43 84.01 12.43L84.01 12.43L84.01 12.43Q84.43 12.43 84.89 12.28L84.89 12.28L84.89 12.28Q85.35 12.13 85.76 11.86L85.76 11.86L85.76 7.55L84.81 7.55ZM89.72 3.99L89.72 2.82L92.22 2.82L92.22 3.99L92.20 3.99L92.20 9.28L93.43 9.28L95.12 7.55L94.69 7.55L94.69 6.37L97.38 6.37L97.38 7.55L96.48 7.55L94.33 9.77L96.68 12.28L97.54 12.28L97.54 13.45L96.04 13.45L93.14 10.29L92.20 10.29L92.20 12.28L92.79 12.28L92.79 13.45L89.76 13.45L89.76 12.28L90.92 12.28L90.92 3.99L89.72 3.99ZM98.66 3.99L98.66 2.82L100.91 2.82L100.91 7.15L100.95 7.15L100.95 7.15Q101.14 6.96 101.39 6.79L101.39 6.79L101.39 6.79Q101.64 6.62 101.91 6.50L101.91 6.50L101.91 6.50Q102.18 6.38 102.48 6.31L102.48 6.31L102.48 6.31Q102.77 6.24 103.09 6.24L103.09 6.24L103.09 6.24Q103.66 6.24 104.12 6.40L104.12 6.40L104.12 6.40Q104.58 6.56 104.90 6.88L104.90 6.88L104.90 6.88Q105.22 7.20 105.39 7.70L105.39 7.70L105.39 7.70Q105.57 8.20 105.57 8.89L105.57 8.89L105.57 12.28L106.63 12.28L106.63 13.45L103.27 13.45L103.27 12.28L104.24 12.28L104.24 9.04L104.24 9.04Q104.24 8.23 103.83 7.81L103.83 7.81L103.83 7.81Q103.41 7.39 102.64 7.39L102.64 7.39L102.64 7.39Q102.20 7.39 101.75 7.60L101.75 7.60L101.75 7.60Q101.30 7.81 100.91 8.12L100.91 8.12L100.91 12.28L101.93 12.28L101.93 13.45L98.57 13.45L98.57 12.28L99.63 12.28L99.63 3.99L98.66 3.99Z"></path></g><!----><g data-v-423bf9ae="" id="18ccab03-125a-4532-b935-f4344223a6df" transform="matrix(1.9598151243192594,0,0,1.9598151243192594,-8.991261951816242,-52.95081505831175)" stroke="none" fill="black"><path d="M75.195 72.96a2.716 2.716 0 0 1-2.074-4.467L88.73 50 73.122 31.507a2.716 2.716 0 0 1 4.151-3.504L94.36 48.248a2.715 2.715 0 0 1 0 3.503L77.272 71.995a2.708 2.708 0 0 1-2.077.965zM24.805 72.96a2.71 2.71 0 0 1-2.076-.964L5.641 51.752a2.715 2.715 0 0 1 0-3.503l17.088-20.245a2.716 2.716 0 0 1 4.151 3.503L11.269 50.001l15.609 18.492a2.716 2.716 0 0 1-2.073 4.467zM37.325 72.96a2.715 2.715 0 0 1-2.299-4.156L60.37 28.315a2.715 2.715 0 1 1 4.604 2.881L39.63 71.685a2.714 2.714 0 0 1-2.305 1.275z"></path></g><!----></svg>