<svg data-v-423bf9ae="" xmlns="http://www.w3.org/2000/svg" viewBox="0 0 117.58896726796672 60" class="icon"><!----><!----><!----><!----><g data-v-423bf9ae="" id="d485f8c9-f29f-4a22-bbfb-ac6dd0609a04" transform="matrix(1.3065434162128395,0,0,1.3065434162128395,-6.533344422904747,-35.32541392681395)" stroke="none" fill="black"><path d="M75.195 72.96a2.716 2.716 0 0 1-2.074-4.467L88.73 50 73.122 31.507a2.716 2.716 0 0 1 4.151-3.504L94.36 48.248a2.715 2.715 0 0 1 0 3.503L77.272 71.995a2.708 2.708 0 0 1-2.077.965zM24.805 72.96a2.71 2.71 0 0 1-2.076-.964L5.641 51.752a2.715 2.715 0 0 1 0-3.503l17.088-20.245a2.716 2.716 0 0 1 4.151 3.503L11.269 50.001l15.609 18.492a2.716 2.716 0 0 1-2.073 4.467zM37.325 72.96a2.715 2.715 0 0 1-2.299-4.156L60.37 28.315a2.715 2.715 0 1 1 4.604 2.881L39.63 71.685a2.714 2.714 0 0 1-2.305 1.275z"></path></g><!----></svg>